<svg xmlns="http://www.w3.org/2000/svg" version="1.1" xmlns:xlink="http://www.w3.org/1999/xlink" xmlns:svgjs="http://svgjs.dev/svgjs" width="181" height="84" viewBox="0 0 2000 484"><g transform="matrix(1,0,0,1,-1.2121212121212466,0.7968427947901091)"><svg viewBox="0 0 396 96" data-background-color="#e9e2da" preserveAspectRatio="xMidYMid meet" height="484" width="2000" xmlns="http://www.w3.org/2000/svg" xmlns:xlink="http://www.w3.org/1999/xlink"><g id="tight-bounds" transform="matrix(1,0,0,1,0.2400000000000091,-0.15805146342944454)"><svg viewBox="0 0 395.52 96.31610292685889" height="96.31610292685889" width="395.52"><g><svg viewBox="0 0 549.3150752482339 133.76791901012373" height="96.31610292685889" width="395.52"><g transform="matrix(1,0,0,1,153.79507524823396,0)"><svg viewBox="0 0 395.52 133.76791901012373" height="133.76791901012373" width="395.52"><g id="textblocktransform"><svg viewBox="0 0 395.52 133.76791901012373" height="133.76791901012373" width="395.52" id="textblock"><g><svg viewBox="0 0 395.52 133.76791901012373" height="133.76791901012373" width="395.52"><g transform="matrix(1,0,0,1,0,0)"><svg width="395.52" viewBox="2.45 -34.6 133.34 45.1" height="133.76791901012373" data-palette-color="#f4f4f4"><path d="M24.6-25.6L24.6-7.5Q24.6-4.65 23.9-2.98 23.2-1.3 21.98-0.65 20.75 0 18.75 0L18.75 0Q15.8 0 14.48-1.58 13.15-3.15 13.1-7.15L13.1-7.15 13-25.6 8.75-25.6Q5.6-25.6 4.03-26.6 2.45-27.6 2.45-30.15L2.45-30.15Q2.45-31.7 3.08-32.6 3.7-33.5 4.95-33.88 6.2-34.25 8.3-34.25L8.3-34.25 29.7-34.25Q32.5-34.25 33.75-33.25 35-32.25 35-29.8L35-29.8Q35-28.15 34.27-27.23 33.55-26.3 32.35-25.95 31.15-25.6 29.25-25.6L29.25-25.6 24.6-25.6ZM39-30.8L39-30.8Q39-32.45 40.42-33.52 41.85-34.6 44.45-34.6L44.45-34.6Q49.9-34.6 49.9-30.8L49.9-30.8Q49.9-28.7 48.52-27.85 47.15-27 44.45-27L44.45-27Q42.1-27 40.55-27.9 39-28.8 39-30.8ZM49.85-18.35L49.85-5.35Q49.85-2.35 48.6-1.18 47.35 0 44.2 0L44.2 0Q41.25 0 40.17-1.38 39.1-2.75 39.1-5.9L39.1-5.9 39.1-18.2Q39.1-20.75 40.47-22.3 41.85-23.85 44.15-23.85L44.15-23.85Q46.85-23.85 48.35-22.68 49.85-21.5 49.85-18.35L49.85-18.35ZM56.9-10.7L56.9-10.7 56.9-16.6Q55.65-16.65 54.9-17.03 54.15-17.4 53.82-18 53.5-18.6 53.5-19.5L53.5-19.5Q53.5-22.35 56.95-22.6L56.95-22.6 56.95-27.25Q56.95-29.15 59.7-30.68 62.45-32.2 65.15-32.2L65.15-32.2Q66.8-32.2 67.3-31.25 67.8-30.3 67.8-28.4L67.8-28.4 67.84-22.65 69.2-22.65Q71.95-22.65 72.97-21.93 74-21.2 74-19.3L74-19.3Q74-18.5 73.7-17.95 73.4-17.4 72.72-17.1 72.05-16.8 71.09-16.68 70.15-16.55 68.75-16.55L68.75-16.55 67.84-16.55 67.84-11.05Q67.84-10.25 67.92-9.73 68-9.2 68.15-8.9 68.3-8.6 68.57-8.5 68.84-8.4 69.25-8.4L69.25-8.4Q69.84-8.4 70.25-8.83 70.65-9.25 70.87-9.78 71.09-10.3 71.47-10.73 71.84-11.15 72.34-11.15L72.34-11.15Q73.5-11.15 74.12-10.6 74.75-10.05 74.75-9.25L74.75-9.25Q74.75-7.9 74.22-6.35 73.7-4.8 72.7-3.35 71.7-1.9 69.92-0.95 68.15 0 65.95 0L65.95 0Q61 0 58.95-2.5 56.9-5 56.9-10.7ZM87.64 0.3L87.64 0.3Q83.69 0.3 81.09-2.93 78.49-6.15 78.49-11.75L78.49-11.75Q78.49-17.45 81.07-20.83 83.64-24.2 87.64-24.2L87.64-24.2Q91.69-24.2 95.14-21.35L95.14-21.35Q96.49-23.85 99.49-23.85L99.49-23.85Q102.19-23.85 103.69-22.68 105.19-21.5 105.19-18.35L105.19-18.35 105.19-5.35Q105.19-2.35 103.94-1.18 102.69 0 99.54 0L99.54 0Q96.24 0 95.19-1.85L95.19-1.85Q91.99 0.3 87.64 0.3ZM94.44-7.2L94.44-16.55Q93.59-18 92.24-18L92.24-18Q90.94-18 90.14-16.1 89.34-14.2 89.34-11.75L89.34-11.75Q89.34-9.45 90.09-7.65 90.84-5.85 92.19-5.85L92.19-5.85Q93.59-5.85 94.44-7.2L94.44-7.2ZM135.79-14.1L135.79-14.1Q135.79-5.55 135.29-2.15L135.29-2.15Q134.89 0.9 134.04 3.13 133.19 5.35 131.64 7.08 130.09 8.8 127.69 9.65 125.29 10.5 121.99 10.5L121.99 10.5Q119.34 10.5 117.07 9.73 114.79 8.95 113.47 7.83 112.14 6.7 111.39 5.6 110.64 4.5 110.64 3.7 110.64 2.9 111.17 2.23 111.69 1.55 112.59 1.55L112.59 1.55Q113.24 1.55 114.12 1.95 114.99 2.35 115.79 2.85 116.59 3.35 117.69 3.75 118.79 4.15 119.84 4.15L119.84 4.15Q122.54 4.15 123.67 2.8 124.79 1.45 124.79-1.05L124.79-1.05Q123.94-0.7 123.14-0.45 122.34-0.2 121.59-0.05 120.84 0.1 120.17 0.15 119.49 0.2 118.84 0.2L118.84 0.2Q115.89 0.2 113.79-1.45 111.69-3.1 110.77-5.53 109.84-7.95 109.84-10.75L109.84-10.75Q109.84-13.55 109.92-15.5 109.99-17.45 110.24-18.98 110.49-20.5 110.82-21.4 111.14-22.3 111.74-22.88 112.34-23.45 113.09-23.65 113.84-23.85 114.89-23.85L114.89-23.85Q118.04-23.85 119.32-22.78 120.59-21.7 120.59-19.4L120.59-19.4 120.64-11.35Q120.64-10.55 120.64-10.18 120.64-9.8 120.72-9.25 120.79-8.7 120.92-8.45 121.04-8.2 121.27-7.93 121.49-7.65 121.87-7.55 122.24-7.45 122.79-7.45L122.79-7.45Q124.29-7.45 124.67-8.28 125.04-9.1 125.04-11.3L125.04-11.3 125.09-19.4Q125.09-20.95 125.62-21.9 126.14-22.85 127.39-23.35 128.64-23.85 130.79-23.85L130.79-23.85Q132.09-23.85 133.02-23.43 133.94-23 134.49-22.33 135.04-21.65 135.32-20.33 135.59-19 135.69-17.65 135.79-16.3 135.79-14.1Z" opacity="1" transform="matrix(1,0,0,1,0,0)" fill="#f4f4f4" class="wordmark-text-0" data-fill-palette-color="primary" id="text-0"></path></svg></g></svg></g></svg></g></svg></g><g transform="matrix(1,0,0,1,0,5.7510032646337805)"><svg viewBox="0 0 122.21567999999999 122.26591248085617" height="122.26591248085617" width="122.21567999999999"><g><svg xmlns="http://www.w3.org/2000/svg" xmlns:xlink="http://www.w3.org/1999/xlink" version="1.1" x="0" y="0" viewBox="5.713 5.677739135162167 88.31822781959784 88.35452793827491" enable-background="new 0 0 100 100" xml:space="preserve" height="122.26591248085617" width="122.21567999999999" class="icon-icon-0" data-fill-palette-color="accent" id="icon-0"><g fill="#101a86" data-fill-palette-color="accent"><g fill="#101a86" data-fill-palette-color="accent"><path fill-rule="evenodd" clip-rule="evenodd" d="M93.793 56.813c-0.59-12.993 0.941-25.719-0.24-38.4-0.317-3.403-1.824-6.343-3.6-8.16-3.295-3.37-7.649-3.577-13.44-3.84-7.691-0.349-16.427-0.492-22.56-0.24-1.562 2.837 0.14 5.395-0.48 7.68 0.071 0.213 0.649 1.051 0.721 0.48 1.127 0.766 4.271-0.136 6.479 0-0.359 0.041-0.886-0.085-0.96 0.24 1.726-0.417 3.767 0.292 5.76-0.72 0.389 0.332 0.591 0.849 1.44 0.72 5.498-0.094 9.885 0.004 14.88-0.24-0.285 0.786 1.933 0.874 2.64 1.44 0.183 1.337 1.933 1.107 1.681 2.88-0.494-0.066-0.227-0.894-0.721-0.96-0.139 1.338 0.277 2.123 0.48 3.12-0.841 4.721 0.008 12.167 0 18.96-0.006 5.288-0.795 13.514 0.24 17.52-0.435 4.383-0.282 11.247-0.48 16.8-0.155 4.366 1.186 8.817-2.4 11.04-0.588 0.365-1.751 0.862-2.64 0.96-8.383 0.921-18.193-1.299-26.88 0-0.542 2.098-0.093 5.188-0.24 7.681 8.384 0.785 14.113-0.494 21.36-0.24 2.574 0.09 5.171 0.416 7.92 0 5.774-0.873 10.296-5.595 10.8-12.24C94.173 73.117 94.119 63.988 93.793 56.813zM88.033 88.493c-4.838 4.647-14.878 1.405-21.84 2.64-0.045-0.204 0.093-0.227 0.239-0.239 0.594 0.03 0.408-0.294 0-0.24-0.213 0.187-0.542 0.258-0.96 0.24-1.652-1.751-4.412 0.567-5.76-0.24 1.757-0.519-3.499 0.577-3.36-0.48 2.986-1.167 10.454-0.708 13.44-0.479 2.436-0.287 4.357-0.647 6.479-0.96-0.157 0.322-0.513 0.446-0.96 0.479 6.211 1.42 13.263-1.192 14.16-7.68 0.271-1.963 0.05-4.718 0-7.2-0.197-9.802-0.284-22.317-0.479-33.12-0.058-3.168 0.403-6.51 0.239-9.36-0.251-4.366 0.877-14.846-1.92-18-3.657-4.125-14.964-3.411-22.56-2.88-2.8 0.195-5.18 0.258-8.64 0.48 0-0.96 0-1.92 0-2.88 11.761 1.39 31.829-4.45 35.04 7.92 0.752 2.898-0.021 7.141 0.239 10.32 0.919 11.234 0 28.898 0 42C91.393 77.812 92.104 84.582 88.033 88.493z" fill="#101a86" data-fill-palette-color="accent"></path><path fill-rule="evenodd" clip-rule="evenodd" d="M46.033 86.573c-4.357 0.227-8.856-0.228-13.92-0.24-7.97-0.021-17.854 2.342-18.72-5.52-0.171-1.548 0.146-3.273 0.24-5.04 0.082-1.552-0.232-3.109-0.24-4.561-0.01-1.715 0.664-3.541 0.72-5.279 0.184-5.729 0.005-11.965-0.48-17.76 1.482-2.876 0.997-4.481 0.48-7.92 0.652-0.171-0.171 1.132 0.48 0.96-0.631-2.291 0.422-3.582-0.72-5.52 2.062-5.165-0.854-15.047 1.2-19.2 0.178-0.358 2.165-2.796 2.4-1.92-0.492-0.132-0.572 0.458-0.24 0.48 2.006-1.257 4.611-0.396 7.44-0.48 6.988-0.207 15.295-0.221 21.6-0.48 1.02-1.7 0.232-5.208 0.48-7.68-3.143-0.869-6.644-0.733-10.08-0.72-3.353 0.013-6.203 0.157-9.6 0.48-7.268-1.315-14.718 0.096-18.48 5.04-1.609 2.115-2.462 5.084-2.88 7.92 0 2.24 0 4.48 0 6.72 0.504 1.61 0.431 3.579 0 5.28 0 0.48 0 0.96 0 1.44 0.474 11.277 0.48 21.921 0.48 32.88 0 5.362-0.713 14.159 0.72 18.96 4.03 13.496 23.137 8.278 38.88 9.12C46.351 91.691 45.874 88.814 46.033 86.573zM43.873 91.613c-8.546-0.577-13.921-0.146-22.32-0.48-3.274-0.13-6.96-0.812-8.88-2.64 0.135-0.008 0.265-0.011 0.38 0-1.072-0.945-2.344-3.827-3.74-5.28 0.084-0.336 0.422-0.021 0.48 0.24 0.89 0.443-0.068-1.087-0.48-1.44 0.477-1.025 0.092-2.436-0.48-3.119 0.422-0.538 0.738-1.183 0.96-1.921-0.738-6.427 0.174-14.75-0.96-20.399 0.326 0.074 0.199 0.601 0.24 0.96 0.587-10.662 0.48-24.787-0.24-37.2 0.527-4.583 3.011-9.459 6.96-10.8 4.514-1.533 11.308 0.782 16.56-0.72 1.281-0.256-0.031 0.596 0.96 0.48 2.448-0.154 5.874-0.601 8.4-0.24 0.48 0.068 1.652 0.051 1.68 0.96-1.446 1.958-4.082 0.722-6.24 0.72-6.589-0.007-16.233-0.554-20.88 0.96-4.15 1.353-4.872 6.254-4.8 11.76 0.182 13.858-0.228 31.951 0 45.84 0.148 9.043-1.34 18.042 6.72 19.2 8.962 1.288 15.914-0.958 25.68 0C44.251 89.106 44.251 91 43.873 91.613z" fill="#101a86" data-fill-palette-color="accent"></path><path fill-rule="evenodd" clip-rule="evenodd" d="M13.053 88.493c0.116 0.102 0.229 0.188 0.34 0.24C13.369 88.564 13.23 88.51 13.053 88.493z" fill="#101a86" data-fill-palette-color="accent"></path><path fill-rule="evenodd" clip-rule="evenodd" d="M65.232 34.253c-10.13-9.703-31.104-6.925-34.799 8.4-1.388 1.306-0.463 3.227-1.44 4.32 3.045 0.687 7.208-0.295 10.32 0.24 0.053-0.187 0.201-0.279 0.48-0.24 1.452-10.12 19.166-10.057 20.64 0 2.96 0.229 4.194 0.491 7.92 0.48 0.001 0.241-0.194 0.286-0.239 0.48 0.785-0.482 1.591-0.572 2.64-0.24 0.348-0.373 0.32-1.12 0.72-1.44-0.018 0.336 0.054 0.918 0.24 0.48-0.211-1.067-0.216-0.848-0.96-0.48 0.108-0.691 0.85-0.75 0.72-1.68-0.492-0.527-0.788-0.298-1.2-1.2 0.308 0.013 0.333 0.308 0.721 0.24-0.402-0.718-0.536-1.705-1.44-1.92 0.636-2.001-2.455-6.11-4.8-6.72C64.774 34.595 65.365 34.785 65.232 34.253zM67.633 44.333c-1.282 0.869-3.856 0.537-5.76 0.48-1.597-3.331-4.685-6.976-8.88-7.68-7.356-1.235-12.945 2.801-14.88 7.92-2.408-0.203-3.787-0.055-5.76-0.48 0.542-1.058 1.055-2.145 1.44-3.36 0.597 0.036 0.07 0.813 0 0.96 0.438-1.015 1.718-1.312 1.2-2.64 0.718 1.317 0.156-1.052 0.96-0.24-0.02-0.38 0.115-0.915-0.24-0.96 0.045-0.272 0.241-0.133 0.24 0 1.467-0.716 3.867-2.516 4.8-4.56 0.271 1.35 3.86-1.288 6.24-1.68 2.955-0.487 6.743-0.324 9.121 0.48 0.374 0.126 0.587 0.768 0.96 0.96 1.247 0.643 3.161 1.025 4.08 1.68C64.063 37.288 65.777 41.145 67.633 44.333z" fill="#101a86" data-fill-palette-color="accent"></path><path fill-rule="evenodd" clip-rule="evenodd" d="M70.753 52.973c-5.198-0.14-8.384-1.74-12 0.721-0.057 0.972 0.453 1.104 0 1.68-0.027-0.293-0.072-0.568-0.48-0.479 0.562 1.153-0.824 0.613-0.239 1.92-0.739-0.168-0.462-0.168-1.2 0-1.071 2.086-3.706 2.096-5.76 3.84-0.011-0.331 0.112-0.527 0.239-0.72-6.347 0.232-9.779-2.792-11.04-7.2-0.413 0.013-0.615-0.185-0.72-0.48-3.586 0.722-8.105-1.091-11.04 0.96 1.519 7.553 6.185 13.096 12.72 16.08C54.635 75.413 69.105 65.909 70.753 52.973zM43.393 67.373c-0.419-0.489 0.179-0.471-0.24-0.96 0.054 1.294-1.741-0.889-2.4-0.24-0.144-1.039-0.83-2.156-1.44-1.439-0.158-0.514-0.443-1.166-1.68-0.96 0.86-0.929-1.379-2.313-2.16-3.12-0.535-0.553-0.699-2.082-2.16-2.16 1.492-0.46-0.319-1.254 0-2.64 1.83-0.115 2.396-0.074 4.32 0 3.793 9.898 21.434 10.292 24.24-0.721 1.948-0.068 4.889 0.179 5.76-0.239C66.399 64.683 54.336 71.728 43.393 67.373z" fill="#101a86" data-fill-palette-color="accent"></path></g></g></svg></g></svg></g></svg></g><defs></defs></svg><rect width="395.52" height="96.31610292685889" fill="none" stroke="none" visibility="hidden"></rect></g></svg></g></svg>